<?xml version="1.0" standalone="no"?>
<!DOCTYPE svg PUBLIC "-//W3C//DTD SVG 20010904//EN"
 "http://www.w3.org/TR/2001/REC-SVG-20010904/DTD/svg10.dtd">
<svg version="1.0" xmlns="http://www.w3.org/2000/svg"
 width="128.000000pt" height="128.000000pt" viewBox="0 0 128.000000 128.000000"
 preserveAspectRatio="xMidYMid meet">
<metadata>
Created by potrace 1.14, written by Peter Selinger 2001-2017
</metadata>
<g transform="translate(0.000000,128.000000) scale(0.100000,-0.100000)"
fill="#000000" stroke="none">
<path d="M142 921 c2 -8 11 -15 21 -17 46 -6 47 -13 47 -263 0 -245 -3 -261
-42 -261 -9 0 -22 -8 -27 -18 -9 -16 0 -18 145 -18 118 0 154 3 154 13 0 7 -3
13 -7 14 -56 5 -92 19 -97 37 -6 16 -9 111 -7 179 1 32 1 32 44 27 68 -8 95
-23 102 -54 7 -30 30 -57 38 -43 2 4 4 59 3 122 -1 82 -5 116 -14 119 -7 2
-15 -8 -18 -27 -10 -47 -37 -66 -101 -66 l-56 0 0 107 c1 58 3 111 7 116 6 10
135 9 181 -2 32 -8 63 -42 68 -75 4 -25 24 -48 33 -38 8 8 6 149 -2 157 -3 3
-111 5 -240 5 -199 1 -234 -2 -232 -14z"/>
<path d="M673 926 c-7 -10 16 -26 39 -26 9 0 20 -6 25 -12 11 -18 12 -447 1
-480 -7 -19 -18 -28 -43 -32 -22 -4 -32 -11 -29 -19 3 -10 42 -13 154 -12 134
1 173 5 159 20 -3 2 -23 7 -45 11 -63 9 -69 21 -69 137 l0 102 25 -1 c14 0 42
-4 63 -8 33 -6 41 -13 58 -52 11 -24 24 -44 29 -44 6 0 10 52 10 125 0 104 -2
125 -15 125 -8 0 -15 -7 -15 -15 0 -52 -46 -85 -121 -85 l-38 0 0 114 c-1 132
-8 124 113 120 94 -4 118 -17 141 -79 10 -25 21 -45 25 -45 11 0 19 25 15 46
-2 11 -4 42 -4 69 l-1 51 -236 -1 c-130 0 -238 -4 -241 -9z"/>
</g>
</svg>
