<?xml version="1.0" standalone="no"?>
<!DOCTYPE svg PUBLIC "-//W3C//DTD SVG 20010904//EN"
 "http://www.w3.org/TR/2001/REC-SVG-20010904/DTD/svg10.dtd">
<svg version="1.0" xmlns="http://www.w3.org/2000/svg"
 width="128.000000pt" height="128.000000pt" viewBox="0 0 128.000000 128.000000"
 preserveAspectRatio="xMidYMid meet">
<metadata>
Created by potrace 1.14, written by Peter Selinger 2001-2017
</metadata>
<g transform="translate(0.000000,128.000000) scale(0.100000,-0.100000)"
fill="#000000" stroke="none">
<path d="M142 921 c2 -8 11 -15 21 -17 46 -6 47 -13 47 -264 0 -254 1 -251
-52 -264 -25 -6 -39 -24 -20 -27 4 -1 74 -2 155 -3 123 -2 147 1 145 13 -2 7
-15 15 -30 17 -80 8 -83 15 -79 196 l1 47 48 -5 c53 -6 95 -31 101 -60 4 -24
21 -45 31 -39 13 8 6 238 -8 243 -7 2 -15 -8 -18 -27 -9 -44 -35 -61 -98 -68
-64 -7 -58 -21 -57 130 0 48 2 91 5 96 7 10 151 7 186 -4 30 -9 57 -42 65 -77
7 -29 22 -45 32 -34 7 7 4 148 -3 156 -3 3 -111 5 -240 5 -199 1 -234 -2 -232
-14z"/>
<path d="M673 927 c-5 -9 4 -22 15 -22 25 -2 52 -19 54 -33 6 -71 3 -442 -4
-464 -7 -19 -18 -28 -43 -32 -22 -4 -32 -11 -29 -19 6 -17 305 -18 311 -1 2 6
-18 15 -44 20 -64 12 -74 33 -71 149 l3 90 40 -2 c72 -4 85 -11 106 -59 11
-24 24 -42 30 -39 5 4 9 60 9 126 0 99 -3 119 -15 119 -8 0 -15 -7 -15 -15 0
-52 -46 -85 -121 -85 l-37 0 -1 115 c-1 86 2 115 11 116 55 6 139 4 168 -4 44
-11 58 -25 75 -73 15 -45 39 -53 38 -11 -1 15 -1 51 -2 80 l-1 53 -236 0
c-129 0 -238 -4 -241 -9z"/>
</g>
</svg>
