<?xml version="1.0" standalone="no"?>
<!DOCTYPE svg PUBLIC "-//W3C//DTD SVG 20010904//EN"
 "http://www.w3.org/TR/2001/REC-SVG-20010904/DTD/svg10.dtd">
<svg version="1.0" xmlns="http://www.w3.org/2000/svg"
 width="128.000000pt" height="128.000000pt" viewBox="0 0 128.000000 128.000000"
 preserveAspectRatio="xMidYMid meet">
<metadata>
Created by potrace 1.14, written by Peter Selinger 2001-2017
</metadata>
<g transform="translate(0.000000,128.000000) scale(0.100000,-0.100000)"
fill="#000000" stroke="none">
<path d="M142 924 c2 -10 12 -18 22 -20 46 -7 48 -18 48 -264 0 -263 0 -262
-74 -269 -5 -1 -8 -8 -8 -16 0 -13 24 -15 156 -15 143 0 155 1 152 18 -2 9
-10 16 -17 14 -7 -1 -29 2 -47 8 -39 13 -47 33 -47 119 1 130 -3 120 51 115
65 -5 87 -20 105 -66 9 -22 20 -37 25 -34 5 3 9 59 9 126 0 94 -3 120 -14 120
-7 0 -16 -13 -19 -29 -9 -44 -37 -64 -99 -69 -49 -4 -55 -2 -56 14 -4 89 -3
188 3 203 6 16 17 18 87 16 113 -4 155 -26 164 -85 4 -25 17 -39 31 -34 7 3
11 15 9 27 -2 12 -4 47 -6 77 l-2 55 -238 3 c-219 2 -238 1 -235 -14z"/>
<path d="M680 921 c5 -11 20 -21 32 -23 13 -2 24 -13 28 -28 4 -14 7 -126 6
-248 -1 -242 0 -236 -59 -249 -15 -3 -26 -11 -24 -17 5 -15 296 -21 311 -6 14
14 6 19 -40 26 -63 9 -69 21 -69 137 l0 102 49 -3 c61 -3 90 -20 102 -63 5
-18 15 -34 22 -37 9 -3 12 27 12 122 0 105 -2 126 -15 126 -8 0 -15 -7 -15
-15 0 -52 -46 -85 -121 -85 l-38 0 2 118 2 117 93 -2 c111 -2 133 -13 157 -77
23 -60 46 -53 41 13 -3 25 -5 61 -5 79 l-1 32 -240 0 c-235 0 -240 0 -230 -19z"/>
</g>
</svg>
